<svg class="nav-bottom-icon" viewBox="0 0 35 35" fill="none" xmlns="http://www.w3.org/2000/svg" aria-hidden="true">
<path d="M11.6667 4.37502C9.53237 4.37502 8.46522 4.37502 7.61375 4.69549C6.26618 5.20268 5.20267 6.26619 4.69548 7.61377C4.37501 8.46524 4.37501 9.53239 4.37501 11.6667" stroke="currentColor" stroke-width="2" stroke-linecap="round"/>
<path d="M11.6667 30.625C9.53237 30.625 8.46522 30.625 7.61375 30.3045C6.26618 29.7973 5.20267 28.7338 4.69548 27.3862C4.37501 26.5348 4.37501 25.4676 4.37501 23.3333" stroke="currentColor" stroke-width="2" stroke-linecap="round"/>
<path d="M23.3333 4.37502C25.4676 4.37502 26.5348 4.37502 27.3862 4.69549C28.7338 5.20268 29.7973 6.26619 30.3045 7.61377C30.625 8.46524 30.625 9.53239 30.625 11.6667" stroke="currentColor" stroke-width="2" stroke-linecap="round"/>
<path d="M23.3333 30.625C25.4676 30.625 26.5348 30.625 27.3862 30.3045C28.7338 29.7973 29.7973 28.7338 30.3045 27.3862C30.625 26.5348 30.625 25.4676 30.625 23.3333" stroke="currentColor" stroke-width="2" stroke-linecap="round"/>
<line x1="7.99642" y1="17.0751" x2="28.0112" y2="17.0036" stroke="currentColor" stroke-width="2" stroke-linecap="round"/>
<rect x="12" y="11" width="12" height="13" rx="2" stroke="currentColor" stroke-width="2"/>
</svg>
