<svg class="nav-bottom-icon nav-bottom-icon--warehouse" viewBox="0 0 43 39" fill="none" xmlns="http://www.w3.org/2000/svg" aria-hidden="true">
<path d="M21.5 34.125V21.125M21.5 34.125L13.5212 28.956C11.2889 27.5099 10.1728 26.7868 9.56556 25.6699C8.95833 24.553 8.95833 23.2231 8.95833 20.5633V13M21.5 34.125L29.4788 28.956C31.7111 27.5099 32.8272 26.7868 33.4344 25.6699C34.0417 24.553 34.0417 23.2231 34.0417 20.5633V13M21.5 21.125L8.95833 13M21.5 21.125L34.0417 13M8.95833 13L16.0629 8.3974C18.7022 6.6875 20.0219 5.83255 21.5 5.83255C22.9781 5.83255 24.2978 6.6875 26.9371 8.39739L34.0417 13" stroke="currentColor" stroke-width="2" stroke-linejoin="round"/>
<path d="M27.2534 18L27.2323 22.3075" stroke="currentColor" stroke-width="2" stroke-linecap="round"/>
<line x1="20.378" y1="12.682" x2="26.682" y2="16.622" stroke="currentColor" stroke-width="2" stroke-linecap="round"/>
</svg>
